<svg xmlns="http://www.w3.org/2000/svg" style="display: none;">
  <symbol id="icon-crown" viewBox="0 0 24 24" fill="currentColor">
    <path d="M5 16L3 10l5.5-1L12 4l3.5 5L21 10l-2 6H5zm2.7-2h8.6l1.1-3.4-2.8.6L12 7.5 9.4 11.2l-2.8-.6L7.7 14z"/>
  </symbol>
  <symbol id="icon-clipboard" viewBox="0 0 24 24" fill="currentColor">
    <path d="M19 3h-4.18C14.4 1.84 13.3 1 12 1c-1.3 0-2.4.84-2.82 2H5c-1.1 0-2 .9-2 2v16c0 1.1.9 2 2 2h14c1.1 0 2-.9 2-2V5c0-1.1-.9-2-2-2zm-7 0c.55 0 1 .45 1 1s-.45 1-1 1-1-.45-1-1 .45-1 1-1zm7 18H5V5h2v3h10V5h2v16z"/>
  </symbol>
  <symbol id="icon-star" viewBox="0 0 24 24" fill="currentColor">
    <path d="M12 17.27L18.18 21l-1.64-7.03L22 9.24l-7.19-.61L12 2 9.19 8.63 2 9.24l5.46 4.73L5.82 21 12 17.27z"/>
  </symbol>
  <symbol id="icon-chart" viewBox="0 0 24 24" fill="currentColor">
    <path d="M5 9.2h3V19H5zM10.6 5h2.8v14h-2.8zm5.6 8H19v6h-2.8z"/>
  </symbol>
</svg>





